<?xml version="1.0" encoding="utf-8"?>
<!-- Generator: Adobe Illustrator 25.0.1, SVG Export Plug-In . SVG Version: 6.00 Build 0)  -->
<svg version="1.1" id="Layer_1" xmlns="http://www.w3.org/2000/svg" xmlns:xlink="http://www.w3.org/1999/xlink" x="0px" y="0px"
	 viewBox="0 0 50 50" style="enable-background:new 0 0 50 50;" xml:space="preserve">
<style type="text/css">
	.st0{fill:#E3E3E3;stroke:#E3E3E3;stroke-width:0.6262;stroke-miterlimit:10;}
</style>
<g>
	<path class="st0" d="M11.1,9.8c-0.4-0.3-0.5-1.1,0-1.6c0.9-1.3,3.3-4.4,7.6-6.2c5.3-2.2,10-1,11.3-0.7c1.5,0.4,6,1.7,9.4,5.9
		c2.4,3,3.1,6.2,3.3,7.7c0.2,0.6-0.2,1.2-0.6,1.3c-0.4,0.1-0.9-0.3-1-0.8c-0.3-1.4-1-4.3-3.3-7.1c-3.1-3.8-7-5-8.4-5.4
		C27.9,2.8,24,2,19.6,3.8c-4.1,1.7-6.3,4.6-7.1,5.7C12.2,10,11.5,10.1,11.1,9.8z"/>
	<path class="st0" d="M44.3,15.4c-0.6-0.9-1.8-0.9-1.8-0.9c-11-0.1-22-0.2-33.1-0.3c-0.1,0-1.1-0.1-1.8,0.7C7,15.5,7,16.3,7.1,16.6
		c0.1,1.4,2.3,13.9,5.6,30.7c0,0.2,0.2,0.8,0.8,1.3c0.5,0.4,1,0.5,1.3,0.5c7.1,0,14.2,0.1,21.3,0.1c0.4,0,0.9-0.1,1.4-0.5
		c0.5-0.4,0.7-1,0.8-1.2c3.6-16.7,6.2-28.9,6.4-30.6C44.6,16.5,44.6,15.9,44.3,15.4z M42.4,18.6c-0.2,1.4-2.5,12.3-5.7,27.1
		c0,0.2-0.2,0.7-0.7,1.1c-0.4,0.3-0.9,0.4-1.2,0.4c-6.3,0-12.6-0.1-18.8-0.1c-0.2,0-0.7-0.1-1.1-0.4c-0.5-0.4-0.7-1-0.7-1.2
		c-2.9-14.9-4.9-25.9-5-27.2c0-0.3,0-1,0.4-1.5c0.6-0.7,1.5-0.6,1.6-0.6c9.8,0.1,19.6,0.2,29.3,0.2c0.1,0,1.1,0,1.6,0.8
		C42.5,17.7,42.5,18.3,42.4,18.6z"/>
	<path class="st0" d="M21.5,41c1.9,0.2,4,0.4,6.3,0.4c3.4,0,6.5-0.2,9.2-0.6c0.6-0.3,1.3,0.1,1.4,0.6c0.2,0.5-0.3,1.2-1,1.3
		c-2.8,0.4-6.1,0.7-9.7,0.7c-2.3,0-4.6-0.1-6.6-0.3c-0.7-0.1-1.1-0.7-1-1.3C20.2,41.2,20.8,40.9,21.5,41z"/>
</g>
</svg>
