<?xml version="1.0" encoding="utf-8"?>
<!-- Generator: Adobe Illustrator 25.0.1, SVG Export Plug-In . SVG Version: 6.00 Build 0)  -->
<svg version="1.1" id="Layer_1" xmlns="http://www.w3.org/2000/svg" xmlns:xlink="http://www.w3.org/1999/xlink" x="0px" y="0px"
	 viewBox="0 0 24 24" style="enable-background:new 0 0 24 24;" xml:space="preserve">
<style type="text/css">
	.st0{fill:#E3E3E3;stroke:#E3E3E3;stroke-width:0.2883;stroke-miterlimit:10;}
</style>
<path class="st0" d="M20.5,7.6c-0.2-0.3-0.6-0.4-0.8-0.4c-0.1-0.8-0.5-2.1-1.5-3.3c-1.5-2-3.6-2.6-4.3-2.7C13.3,1,11.1,0.4,8.7,1.4
	c-2,0.8-3.1,2.2-3.5,2.8C5,4.5,5,4.9,5.2,5c0.2,0.1,0.5,0.1,0.6-0.2C6.3,4.3,7.3,3,9.1,2.2c2-0.8,3.8-0.5,4.5-0.3
	c0.6,0.2,2.4,0.7,3.9,2.5c0.8,1,1.2,2,1.4,2.8c-4.8,0-9.6-0.1-14.5-0.1c0,0-0.5-0.1-0.8,0.3C3.4,7.6,3.4,8,3.4,8.1
	c0,0.7,1.1,6.4,2.6,14.1c0,0.1,0.1,0.4,0.4,0.6c0.2,0.2,0.5,0.2,0.6,0.2c3.3,0,6.5,0,9.8,0c0.2,0,0.4,0,0.6-0.2
	c0.2-0.2,0.3-0.5,0.4-0.6c1.7-7.7,2.8-13.3,3-14.1C20.6,8.1,20.7,7.8,20.5,7.6z M19.6,9.1c-0.1,0.6-0.9,4.6-2.1,10.2
	c-0.1,0-0.3-0.1-0.4,0c-1.2,0.2-2.7,0.3-4.2,0.3c-1,0-2-0.1-2.9-0.2c-0.3-0.1-0.6,0.1-0.6,0.3c-0.1,0.3,0.1,0.6,0.5,0.6
	c0.9,0.1,2,0.1,3,0.1c1.6,0,3.1-0.1,4.5-0.3c-0.1,0.5-0.2,0.9-0.3,1.4c0,0.1-0.1,0.3-0.3,0.5c-0.2,0.2-0.4,0.2-0.6,0.2
	c-2.9,0-5.8,0-8.7,0c-0.1,0-0.3,0-0.5-0.2c-0.2-0.2-0.3-0.5-0.3-0.5C5.3,14.6,4.4,9.5,4.3,8.9c0-0.1,0-0.5,0.2-0.7
	c0.3-0.3,0.7-0.3,0.7-0.3C9.8,8,14.3,8,18.8,8c0,0,0.5,0,0.7,0.4C19.7,8.6,19.7,8.9,19.6,9.1z"/>
</svg>
