<?xml version="1.0" encoding="utf-8"?>
<!-- Generator: Adobe Illustrator 25.0.1, SVG Export Plug-In . SVG Version: 6.00 Build 0)  -->
<svg version="1.1" id="Layer_1" xmlns="http://www.w3.org/2000/svg" xmlns:xlink="http://www.w3.org/1999/xlink" x="0px" y="0px"
	 viewBox="0 0 255 255" style="enable-background:new 0 0 255 255;" xml:space="preserve">
<style type="text/css">
	.st0{fill:#F3ECEB;stroke:#F0ECEB;stroke-width:2;stroke-miterlimit:10;}
</style>
<g>
	<path class="st0" d="M77.5,89.3c-1.4-1-1.7-3.5-0.1-5.1c2.9-4.2,10.5-14,24.2-19.7c16.8-7,31.8-3.3,36.2-2.2
		c4.9,1.3,19.2,5.3,29.9,19c7.6,9.7,9.8,19.7,10.6,24.7c0.7,1.9-0.5,3.8-2,4.1c-1.3,0.3-2.9-0.8-3.3-2.5
		c-0.9-4.6-3.2-13.7-10.4-22.6c-9.9-12.2-22.5-16-26.8-17.1c-4.7-1.2-17.2-3.6-31.2,2C91.6,75.3,84.6,84.6,82,88.3
		C80.8,89.9,78.8,90.1,77.5,89.3z"/>
	<path class="st0" d="M183.3,107c-2-3-5.7-2.8-5.9-2.8c-35.2-0.3-70.4-0.5-105.6-0.8c-0.3,0-3.5-0.4-5.8,2.1
		c-1.6,1.9-1.6,4.5-1.5,5.5c0.2,4.6,7.4,44.3,18,98c0.1,0.6,0.6,2.6,2.5,4.2c1.6,1.3,3.3,1.6,4,1.6c22.6,0.1,45.2,0.2,67.9,0.3
		c1.2-0.1,2.9-0.3,4.4-1.5c1.7-1.4,2.3-3.3,2.5-3.9c11.5-53.2,19.7-92.3,20.5-97.6C184.4,110.7,184.5,108.7,183.3,107z M177.4,117.4
		c-0.7,4.6-8,39.3-18.2,86.6c-0.1,0.6-0.7,2.3-2.2,3.5c-1.3,1.1-2.9,1.3-3.9,1.3c-20.1-0.1-40.1-0.2-60.2-0.3
		c-0.6-0.1-2.1-0.3-3.5-1.4c-1.7-1.4-2.1-3.2-2.2-3.7c-9.3-47.7-15.8-82.8-15.9-87c0-0.9-0.1-3.2,1.4-4.9c2-2.3,4.9-1.9,5.1-1.9
		c31.2,0.2,62.5,0.5,93.7,0.7c0.2,0,3.4-0.1,5.2,2.5C177.7,114.4,177.6,116.2,177.4,117.4z"/>
	<path class="st0" d="M110.6,188.9c6.1,0.7,12.8,1.2,20,1.3c11,0.1,20.9-0.7,29.4-2c2-0.8,4.1,0.3,4.6,1.9c0.5,1.7-0.8,3.8-3.1,4.1
		c-9.1,1.3-19.6,2.2-31,2.3c-7.5,0-14.6-0.3-21.1-1c-2.2-0.2-3.6-2.3-3.2-4.2C106.5,189.6,108.6,188.4,110.6,188.9z"/>
</g>
</svg>
