<?xml version="1.0" encoding="utf-8"?>
<!-- Generator: Adobe Illustrator 25.0.1, SVG Export Plug-In . SVG Version: 6.00 Build 0)  -->
<svg version="1.1" id="Layer_1" xmlns="http://www.w3.org/2000/svg" xmlns:xlink="http://www.w3.org/1999/xlink" x="0px" y="0px"
	 viewBox="0 0 124 30" style="enable-background:new 0 0 124 30;" xml:space="preserve">
<style type="text/css">
	.st0{fill:#E3E3E3;stroke:#E3E3E3;stroke-width:0.3063;stroke-miterlimit:10;}
	.st1{fill:#E3E3E3;}
	.st2{font-family:'Calibri';}
	.st3{font-size:16.744px;}
</style>
<g>
	<path class="st0" d="M6.5,7.6C6.3,7.4,6.2,7,6.5,6.8c0.4-0.6,1.6-2.1,3.7-3c2.6-1.1,4.9-0.5,5.5-0.3c0.8,0.2,2.9,0.8,4.6,2.9
		c1.2,1.5,1.5,3,1.6,3.8c0.1,0.3-0.1,0.6-0.3,0.6c-0.2,0-0.4-0.1-0.5-0.4c-0.1-0.7-0.5-2.1-1.6-3.5c-1.5-1.9-3.4-2.5-4.1-2.6
		c-0.7-0.2-2.6-0.6-4.8,0.3c-2,0.8-3.1,2.2-3.5,2.8C7,7.7,6.7,7.7,6.5,7.6z"/>
	<path class="st0" d="M22.7,10.3c-0.3-0.5-0.9-0.4-0.9-0.4C16.4,9.8,11,9.8,5.6,9.7c0,0-0.5-0.1-0.9,0.3c-0.2,0.3-0.2,0.7-0.2,0.8
		c0,0.7,1.1,6.8,2.8,15c0,0.1,0.1,0.4,0.4,0.6c0.2,0.2,0.5,0.2,0.6,0.2c3.5,0,6.9,0,10.4,0c0.2,0,0.4,0,0.7-0.2
		c0.3-0.2,0.4-0.5,0.4-0.6c1.8-8.1,3-14.1,3.1-14.9C22.9,10.9,22.9,10.6,22.7,10.3z M21.8,11.9c-0.1,0.7-1.2,6-2.8,13.3
		c0,0.1-0.1,0.4-0.3,0.5c-0.2,0.2-0.4,0.2-0.6,0.2c-3.1,0-6.1,0-9.2,0c-0.1,0-0.3,0-0.5-0.2C8.1,25.4,8,25.1,8,25.1
		c-1.4-7.3-2.4-12.7-2.4-13.3c0-0.1,0-0.5,0.2-0.8c0.3-0.4,0.8-0.3,0.8-0.3c4.8,0,9.6,0.1,14.4,0.1c0,0,0.5,0,0.8,0.4
		C21.8,11.4,21.8,11.7,21.8,11.9z"/>
	<path class="st0" d="M11.6,22.8c0.9,0.1,2,0.2,3.1,0.2c1.7,0,3.2-0.1,4.5-0.3c0.3-0.1,0.6,0,0.7,0.3c0.1,0.3-0.1,0.6-0.5,0.6
		c-1.4,0.2-3,0.3-4.7,0.4c-1.1,0-2.2,0-3.2-0.2c-0.3,0-0.6-0.4-0.5-0.6C10.9,22.9,11.3,22.8,11.6,22.8z"/>
</g>
<text transform="matrix(1 0 0 1 26.924 21.1677)" class="st1 st2 st3">MarketBucket</text>
</svg>
