<?xml version="1.0" encoding="utf-8"?>
<!-- Generator: Adobe Illustrator 25.0.1, SVG Export Plug-In . SVG Version: 6.00 Build 0)  -->
<svg version="1.1" id="Layer_1" xmlns="http://www.w3.org/2000/svg" xmlns:xlink="http://www.w3.org/1999/xlink" x="0px" y="0px"
	 viewBox="0 0 24 24" style="enable-background:new 0 0 24 24;" xml:space="preserve">
<path d="M23.8,12c0,6.5-5.3,11.8-11.8,11.8S0.2,18.5,0.2,12S5.5,0.2,12,0.2S23.8,5.5,23.8,12 M17.9,7.5c-0.4-0.4-1.1-0.4-1.6,0
	c0,0,0,0,0,0l-5.1,6.5L8.1,11c-0.4-0.4-1.1-0.4-1.6,0.1c-0.4,0.4-0.4,1.1,0,1.5l3.9,3.9c0.4,0.4,1.1,0.4,1.6,0c0,0,0,0,0,0L18,9.1
	C18.4,8.7,18.4,8,17.9,7.5L17.9,7.5z"/>
</svg>
