<?xml version="1.0" encoding="utf-8"?>
<!-- Generator: Adobe Illustrator 25.0.1, SVG Export Plug-In . SVG Version: 6.00 Build 0)  -->
<svg version="1.1" id="Layer_1" xmlns="http://www.w3.org/2000/svg" xmlns:xlink="http://www.w3.org/1999/xlink" x="0px" y="0px"
	 viewBox="0 0 24 24" style="enable-background:new 0 0 24 24;" xml:space="preserve">
<path d="M23.5,12c0-6.3-5.1-11.5-11.5-11.5S0.5,5.7,0.5,12c0,5.4,3.7,9.9,8.7,11.1v-7.6H6.9V12h2.4v-1.5c0-3.9,1.8-5.7,5.6-5.7
	c0.7,0,2,0.1,2.5,0.3v3.2c-0.3,0-0.7,0-1.3,0c-1.9,0-2.6,0.7-2.6,2.6V12h3.7l-0.6,3.5h-3.1v7.9C19.1,22.7,23.5,17.9,23.5,12L23.5,12
	z"/>
</svg>
