<?xml version="1.0" encoding="utf-8"?>
<!-- Generator: Adobe Illustrator 25.0.1, SVG Export Plug-In . SVG Version: 6.00 Build 0)  -->
<svg version="1.1" id="Layer_1" xmlns="http://www.w3.org/2000/svg" xmlns:xlink="http://www.w3.org/1999/xlink" x="0px" y="0px"
	 viewBox="0 0 448 512" style="enable-background:new 0 0 448 512;" xml:space="preserve">
<path d="M435.3,168.3c-1.6-34.1-9.4-64.3-34.4-89.2c-24.9-24.9-55.1-32.7-89.2-34.4c-35.1-2-140.4-2-175.6,0
	c-34,1.6-64.2,9.4-89.2,34.3c-25,24.9-32.7,55.1-34.4,89.2c-2,35.1-2,140.4,0,175.6c1.6,34.1,9.4,64.3,34.4,89.2
	c25,24.9,55.1,32.7,89.2,34.4c35.1,2,140.4,2,175.6,0c34.1-1.6,64.3-9.4,89.2-34.4c24.9-24.9,32.7-55.1,34.4-89.2
	C437.3,308.6,437.3,203.4,435.3,168.3z M224,362.9c-59.1,0-107-47.9-107-107c0-59.1,47.9-107,107-107s107,47.9,107,107
	C331,315,283.1,362.9,224,362.9z M337.7,168.9c-14.7,0-26.5-11.9-26.5-26.5s11.9-26.5,26.5-26.5c14.7,0,26.5,11.9,26.5,26.5
	S352.3,168.9,337.7,168.9z"/>
</svg>
