<?xml version="1.0" encoding="utf-8"?>
<!-- Generator: Adobe Illustrator 25.0.1, SVG Export Plug-In . SVG Version: 6.00 Build 0)  -->
<svg version="1.1" id="Layer_1" xmlns="http://www.w3.org/2000/svg" xmlns:xlink="http://www.w3.org/1999/xlink" x="0px" y="0px"
	 viewBox="0 0 24 24" style="enable-background:new 0 0 24 24;" xml:space="preserve">
<path d="M20.2,0.5H3.8C2,0.5,0.5,2,0.5,3.8v16.4c0,1.8,1.5,3.3,3.3,3.3h16.4c1.8,0,3.3-1.5,3.3-3.3V3.8C23.5,2,22,0.5,20.2,0.5z
	 M21.4,15.7c-0.1,1.4-0.4,2.7-1.5,3.8v0c-1.1,1.1-2.4,1.4-3.9,1.5C14.5,21,9.9,21,8.4,21c-1.5-0.1-2.8-0.4-3.9-1.5
	c-1.1-1.1-1.4-2.3-1.5-3.8c-0.1-1.5-0.1-6,0-7.4c0.1-1.4,0.4-2.7,1.5-3.8C5.6,3.4,6.9,3.1,8.4,3C9.9,3,14.5,3,16,3
	c1.5,0.1,2.8,0.4,3.9,1.5c1.1,1.1,1.4,2.3,1.5,3.8C21.5,9.8,21.5,14.2,21.4,15.7z"/>
<path d="M19.4,6.7c-0.2-0.4-0.4-0.7-0.7-1v0c-0.3-0.3-0.7-0.5-1.1-0.7c-1-0.4-3.3-0.4-4.8-0.4c-0.2,0-0.5,0-0.6,0
	c-0.2,0-0.4,0-0.7,0c-1.5,0-3.8,0-4.8,0.4C6.3,5.1,6,5.3,5.7,5.6C5.4,5.9,5.1,6.3,5,6.7c-0.4,1-0.4,3.3-0.4,4.7c0,0.2,0,0.4,0,0.6
	c0,0.2,0,0.4,0,0.6c0,1.4,0,3.7,0.4,4.7c0.2,0.4,0.4,0.7,0.7,1C6,18.7,6.3,18.9,6.7,19c1,0.4,3.3,0.4,4.8,0.4c0.2,0,0.5,0,0.6,0
	c0.2,0,0.4,0,0.7,0c1.5,0,3.8,0,4.8-0.4c0.4-0.2,0.8-0.4,1.1-0.7c0.3-0.3,0.5-0.6,0.7-1c0.4-1,0.4-3.2,0.4-4.7c0-0.2,0-0.5,0-0.6
	c0-0.2,0-0.4,0-0.6C19.8,9.9,19.9,7.7,19.4,6.7z M16.2,14.6c-1.5,2.1-4.4,2.7-6.6,1.3c-2.2-1.4-2.8-4.3-1.3-6.4
	c1.5-2.1,4.4-2.7,6.6-1.3h0C17,9.6,17.6,12.4,16.2,14.6z M18.2,7.6C18.1,7.7,18,7.8,18,7.9c-0.1,0.1-0.2,0.2-0.4,0.2
	c-0.1,0.1-0.4,0.1-0.4,0.1c-0.2,0-0.4-0.1-0.6-0.2h0c-0.2-0.1-0.3-0.3-0.4-0.5C16,7.4,16,7.2,16.1,7c0-0.2,0.2-0.4,0.3-0.6
	c0.2-0.2,0.4-0.3,0.6-0.3c0.2,0,0.4,0,0.6,0.1c0.2,0.1,0.4,0.2,0.5,0.4s0.2,0.4,0.2,0.6C18.3,7.3,18.2,7.5,18.2,7.6z"/>
<path d="M10.5,9.5c-1.4,0.9-1.8,2.8-0.9,4.2c0.9,1.4,2.9,1.8,4.3,0.8c1.4-0.9,1.8-2.8,0.9-4.2C13.8,8.9,11.9,8.6,10.5,9.5z"/>
</svg>
