<?xml version="1.0" encoding="utf-8"?>
<!-- Generator: Adobe Illustrator 25.0.1, SVG Export Plug-In . SVG Version: 6.00 Build 0)  -->
<svg version="1.1" id="Layer_1" xmlns="http://www.w3.org/2000/svg" xmlns:xlink="http://www.w3.org/1999/xlink" x="0px" y="0px"
	 viewBox="0 0 24 24" style="enable-background:new 0 0 24 24;" xml:space="preserve">
<path d="M12,0.3C5.5,0.3,0.3,5.5,0.3,12S5.5,23.7,12,23.7S23.7,18.5,23.7,12S18.5,0.3,12,0.3z M17.4,8.3c-0.2,1.9-0.9,6.3-1.3,8.4
	c-0.2,0.9-0.5,1.2-0.8,1.2c-0.7,0.1-1.2-0.4-1.9-0.9c-1-0.7-1.6-1.1-2.6-1.8c-1.2-0.8-0.4-1.2,0.3-1.9c0.2-0.2,3.2-2.9,3.2-3.1
	c0,0,0-0.1-0.1-0.2s-0.2,0-0.2,0c-0.1,0-1.7,1.1-4.9,3.3c-0.5,0.3-0.9,0.5-1.3,0.5c-0.4,0-1.2-0.2-1.8-0.4c-0.7-0.2-1.3-0.4-1.3-0.8
	c0-0.2,0.3-0.4,0.9-0.6c3.4-1.5,5.7-2.5,6.8-2.9c3.3-1.4,3.9-1.6,4.4-1.6c0.1,0,0.3,0,0.5,0.1c0.1,0.1,0.2,0.2,0.2,0.3
	C17.4,7.9,17.4,8.1,17.4,8.3z"/>
</svg>
