<?xml version="1.0" encoding="utf-8"?>
<!-- Generator: Adobe Illustrator 25.0.1, SVG Export Plug-In . SVG Version: 6.00 Build 0)  -->
<svg version="1.1" id="Layer_1" xmlns="http://www.w3.org/2000/svg" xmlns:xlink="http://www.w3.org/1999/xlink" x="0px" y="0px"
	 viewBox="0 0 24 24" style="enable-background:new 0 0 24 24;" xml:space="preserve">
<path d="M23.3,6.2c-0.3-1-1.1-1.8-2.1-2.1C19.4,3.6,12,3.6,12,3.6s-7.4,0-9.2,0.5c-1,0.3-1.8,1.1-2.1,2.1c-0.5,1.9-0.5,5.7-0.5,5.7
	s0,3.9,0.5,5.7c0.3,1,1.1,1.8,2.1,2.1c1.8,0.5,9.2,0.5,9.2,0.5s7.4,0,9.2-0.5c1-0.3,1.8-1,2.1-2.1c0.5-1.9,0.5-5.7,0.5-5.7
	S23.8,8.1,23.3,6.2L23.3,6.2z M9.6,15.5v-7l6.2,3.5L9.6,15.5L9.6,15.5z"/>
</svg>
