<?xml version="1.0" encoding="utf-8"?>
<!-- Generator: Adobe Illustrator 25.0.1, SVG Export Plug-In . SVG Version: 6.00 Build 0)  -->
<svg version="1.1" id="Layer_1" xmlns="http://www.w3.org/2000/svg" xmlns:xlink="http://www.w3.org/1999/xlink" x="0px" y="0px"
	 viewBox="0 0 24 24" style="enable-background:new 0 0 24 24;" xml:space="preserve">
<path d="M11.9,0.9C5.5,0.9,0.6,5.7,0.6,12.1c0,5.1,3.2,9.5,7.8,11c0.6,0.1,0.8-0.3,0.8-0.6c0-0.3,0-1.9,0-2.8c0,0-3.2,0.7-3.9-1.4
	c0,0-0.5-1.3-1.3-1.7c0,0-1.1-0.7,0.1-0.7c0,0,1.1,0.1,1.8,1.2c1,1.8,2.7,1.3,3.4,1c0.1-0.7,0.4-1.2,0.7-1.5
	c-2.6-0.3-5.2-0.7-5.2-5.1c0-1.3,0.3-1.9,1.1-2.7C5.7,8.5,5.3,7.2,6,5.6c1-0.3,3.2,1.2,3.2,1.2c0.9-0.3,1.9-0.4,2.9-0.4
	s2,0.1,2.9,0.4c0,0,2.2-1.5,3.2-1.2c0.6,1.6,0.2,2.8,0.1,3.1c0.7,0.8,1.2,1.4,1.2,2.7c0,4.4-2.7,4.8-5.3,5.1
	c0.4,0.4,0.8,1.1,0.8,2.1c0,1.5,0,3.5,0,3.8c0,0.3,0.2,0.7,0.8,0.6c4.6-1.5,7.7-5.9,7.7-11C23.4,5.7,18.2,0.9,11.9,0.9z"/>
</svg>
